HIERARCHY
ROOT Hips
{
	OFFSET 0.000000 0.000000 0.000000
	CHANNELS 6 Xposition Yposition Zposition Zrotation Yrotation Xrotation 
	JOINT LHipJoint
	{
		OFFSET 0.000000 0.000000 0.000000
		CHANNELS 3 Zrotation Yrotation Xrotation
		JOINT LeftUpLeg
		{
			OFFSET 1.363060 -1.794630 0.839290
			CHANNELS 3 Zrotation Yrotation Xrotation
			JOINT LeftLeg
			{
				OFFSET 2.448110 -6.726130 0.000000
				CHANNELS 3 Zrotation Yrotation Xrotation
				JOINT LeftFoot
				{
					OFFSET 2.562200 -7.039590 0.000000
					CHANNELS 3 Zrotation Yrotation Xrotation
					JOINT LeftToeBase
					{
						OFFSET 0.157640 -0.433110 2.322550
						CHANNELS 3 Zrotation Yrotation Xrotation
						End Site
						{
							OFFSET 0.000000 0.000000 0.000000
						}
					}
				}
			}
		}
	}
	JOINT RHipJoint
	{
		OFFSET 0.000000 0.000000 0.000000
		CHANNELS 3 Zrotation Yrotation Xrotation
		JOINT RightUpLeg
		{
			OFFSET -1.305520 -1.794630 0.839290
			CHANNELS 3 Zrotation Yrotation Xrotation
			JOINT RightLeg
			{
				OFFSET -2.542530 -6.985550 0.000000
				CHANNELS 3 Zrotation Yrotation Xrotation
				JOINT RightFoot
				{
					OFFSET -2.568260 -7.056230 0.000000
					CHANNELS 3 Zrotation Yrotation Xrotation
					JOINT RightToeBase
					{
						OFFSET -0.164730 -0.452590 2.363150
						CHANNELS 3 Zrotation Yrotation Xrotation
						End Site
						{
							OFFSET 0.000000 0.000000 0.000000
						}
					}
				}
			}
		}
	}
	JOINT LowerBack
	{
		OFFSET 0.000000 0.000000 0.000000
		CHANNELS 3 Zrotation Yrotation Xrotation
		JOINT Spine
		{
			OFFSET 0.028270 2.035590 -0.193380
			CHANNELS 3 Zrotation Yrotation Xrotation
			JOINT Spine1
			{
				OFFSET 0.056720 2.048850 -0.042750
				CHANNELS 3 Zrotation Yrotation Xrotation
				JOINT Neck
				{
					OFFSET 0.000000 0.000000 0.000000
					CHANNELS 3 Zrotation Yrotation Xrotation
					JOINT Neck1
					{
						OFFSET -0.054170 1.746240 0.172020
						CHANNELS 3 Zrotation Yrotation Xrotation
						JOINT Head
						{
							OFFSET 0.104070 1.761360 -0.123970
							CHANNELS 3 Zrotation Yrotation Xrotation
							End Site
							{
								OFFSET 0.000000 0.000000 0.000000
							}
						}
					}
				}
				JOINT LeftShoulder
				{
					OFFSET 0.000000 0.000000 0.000000
					CHANNELS 3 Zrotation Yrotation Xrotation
					JOINT LeftArm
					{
						OFFSET 3.362410 1.200890 -0.311210
						CHANNELS 3 Zrotation Yrotation Xrotation
						JOINT LeftForeArm
						{
							OFFSET 4.983000 -0.000000 -0.000000
							CHANNELS 3 Zrotation Yrotation Xrotation
							JOINT LeftHand
							{
								OFFSET 3.483560 -0.000000 -0.000000
								CHANNELS 3 Zrotation Yrotation Xrotation
								JOINT LeftFingerBase
								{
									OFFSET 0.000000 0.000000 0.000000
									CHANNELS 3 Zrotation Yrotation Xrotation
									JOINT LeftHandIndex1
									{
										OFFSET 0.715260 -0.000000 -0.000000
										CHANNELS 3 Zrotation Yrotation Xrotation
										End Site
										{
											OFFSET 0.000000 0.000000 0.000000
										}
									}
								}
								JOINT LThumb
								{
									OFFSET 0.000000 0.000000 0.000000
									CHANNELS 3 Zrotation Yrotation Xrotation
									End Site
									{
										OFFSET 0.000000 0.000000 0.000000
									}
								}
							}
						}
					}
				}
				JOINT RightShoulder
				{
					OFFSET 0.000000 0.000000 0.000000
					CHANNELS 3 Zrotation Yrotation Xrotation
					JOINT RightArm
					{
						OFFSET -3.136600 1.374050 -0.404650
						CHANNELS 3 Zrotation Yrotation Xrotation
						JOINT RightForeArm
						{
							OFFSET -5.241900 -0.000000 -0.000000
							CHANNELS 3 Zrotation Yrotation Xrotation
							JOINT RightHand
							{
								OFFSET -3.444170 -0.000000 -0.000000
								CHANNELS 3 Zrotation Yrotation Xrotation
								JOINT RightFingerBase
								{
									OFFSET 0.000000 0.000000 0.000000
									CHANNELS 3 Zrotation Yrotation Xrotation
									JOINT RightHandIndex1
									{
										OFFSET -0.622530 -0.000000 -0.000000
										CHANNELS 3 Zrotation Yrotation Xrotation
										End Site
										{
											OFFSET 0.000000 0.000000 0.000000
										}
									}
								}
								JOINT RThumb
								{
									OFFSET 0.000000 0.000000 0.000000
									CHANNELS 3 Zrotation Yrotation Xrotation
									End Site
									{
										OFFSET 0.000000 0.000000 0.000000
									}
								}
							}
						}
					}
				}
			}
		}
	}
}
MOTION
Frames: 9
Frame Time: 0.008333
-1.284125 15.434719 8.049553 -5.829274 40.455455 24.149832 7.809998 3.695804 4.868245 11.655608 -25.108036 -77.926238 8.658516 21.799562 59.149249 2.125658 -6.697912 -3.578628 1.487100 -7.704300 -21.819400 -8.900283 -1.211875 1.999345 26.612342 15.303022 -58.714698 -11.574794 -22.945289 70.742620 3.389415 -25.346948 -35.980926 -0.809100 -5.740500 16.033300 6.403308 -0.911497 17.052839 -8.169386 3.594636 35.579730 -2.893440 1.024484 -34.430122 -6.317576 0.041288 -18.849028 10.845924 0.593062 -7.007592 1.897400 -0.250800 0.383000 -0.448218 -7.296517 -2.432478 -90.867528 -22.885037 58.119171 151.641503 -36.539591 -111.155609 1.898689 0.037880 17.483834 -51.448357 3.812838 -3.594600 -7.125000 0.000000 0.000000 -44.148100 15.240200 50.845500 9.841825 5.964196 -0.290935 77.325511 31.173216 59.190435 -150.318401 36.165789 -110.440349 -0.712503 -0.543069 37.453425 46.874929 -31.203693 -28.128600 7.125000 0.000000 0.000000 68.226200 -47.758200 -8.599800 
-1.244203 15.671520 8.113954 -6.264645 40.346764 23.267250 7.684931 3.534771 4.764583 11.000225 -25.004422 -74.968444 7.832598 21.234981 56.617360 2.161535 -6.849010 -2.895043 1.487500 -7.705300 -21.822500 -8.674784 -1.168384 1.922314 27.604805 14.310232 -56.249240 -10.509180 -22.300136 67.812041 3.578340 -24.902637 -34.806943 -0.819800 -5.777300 16.139500 6.507184 -0.489145 16.129775 -8.254225 3.973881 34.783903 -2.956545 1.176552 -34.088407 -6.402396 0.031328 -19.074382 11.258818 0.616064 -6.775635 1.972400 -0.232300 0.475300 -0.567499 -7.274289 -2.393508 -90.731004 -22.875757 57.984547 151.792538 -36.432109 -111.204506 1.900738 0.045222 17.472306 -52.301760 3.456838 -3.190000 -7.125000 0.000000 0.000000 -43.855200 13.463500 53.155800 9.979547 5.957786 -0.229021 76.852035 31.443536 58.824424 -150.280788 36.179856 -110.417670 -0.707650 -0.551662 37.477495 47.330100 -31.288150 -28.553500 7.125000 0.000000 0.000000 68.488500 -47.729700 -8.610600 
-1.194196 15.926811 8.177409 -6.472936 40.365852 22.188935 7.527094 3.394552 4.679745 10.103943 -25.322475 -71.549324 6.948467 20.569347 53.850841 2.173590 -6.806002 -2.261380 1.558500 -7.878500 -22.345600 -8.393541 -1.119669 1.795564 28.432700 12.642182 -53.419074 -9.405718 -21.483940 64.672807 3.824271 -24.558292 -33.551509 -0.808000 -5.736600 16.022100 6.838915 -0.413774 15.655553 -8.818515 4.160349 33.795597 -2.899452 1.179580 -33.935084 -6.212740 0.122113 -19.378926 11.601090 0.725153 -6.182642 1.997100 -0.145400 0.639100 -0.616198 -7.258373 -2.315759 -90.389800 -22.777144 57.771467 151.840093 -36.410813 -111.217918 1.901848 0.042862 17.507017 -52.537950 3.428984 -3.173600 -7.125000 0.000000 0.000000 -43.797800 13.044500 53.712600 10.193700 5.917702 -0.146829 76.469165 31.669910 59.002628 -150.158119 36.286714 -110.341086 -0.723212 -0.542098 37.617156 47.110683 -31.682651 -28.661700 7.125000 0.000000 0.000000 68.898700 -48.009200 -9.540700 
-1.137674 16.177900 8.248639 -6.856918 40.133748 21.139908 7.376268 3.214955 4.525757 9.204252 -25.233048 -67.982410 6.033340 19.794040 50.869658 2.179776 -6.656149 -1.663012 1.562400 -7.887900 -22.374100 -8.075534 -1.103979 1.698144 29.218124 11.225449 -50.683783 -8.321635 -20.635284 61.498571 4.058652 -24.155697 -32.196087 -0.787300 -5.664400 15.813700 7.013522 -0.121001 14.959318 -8.919434 4.372003 32.577947 -2.912547 1.230758 -33.675862 -6.213503 0.167290 -19.671526 11.800392 0.764130 -5.352171 2.002100 -0.077900 0.857000 -0.796881 -7.212357 -2.226680 -90.315040 -22.553864 57.750525 151.797246 -36.511716 -111.192612 1.898888 0.036968 17.562057 -52.270591 3.549083 -3.321500 -7.125000 0.000000 0.000000 -43.890700 13.642500 52.956400 10.414411 5.876228 -0.058792 76.149595 31.638703 59.250268 -150.122771 36.369590 -110.300507 -0.739812 -0.532894 37.657102 46.676864 -32.261862 -28.719800 7.125000 0.000000 0.000000 69.455400 -48.435200 -10.942000 
-1.078001 16.432351 8.320918 -7.268478 40.050648 19.801972 7.266780 3.019116 4.454441 8.250684 -25.308666 -64.173384 5.141173 18.895426 47.812917 2.183151 -6.483899 -0.920185 1.503400 -7.744600 -21.940900 -7.624488 -1.185529 1.780236 29.923202 9.566220 -47.830068 -7.218963 -19.671849 58.137869 4.323057 -23.780551 -30.715506 -0.708900 -5.381100 14.998800 6.785350 0.312008 13.671076 -7.571106 4.348669 32.956494 -3.504897 1.138219 -33.646461 -6.268489 0.086218 -20.414391 11.712422 0.693084 -4.199423 1.961600 -0.030700 1.192800 -0.971970 -7.125238 -2.248745 -90.514005 -22.791136 57.797838 151.709508 -36.583501 -111.158486 1.895178 0.039567 17.614510 -51.882692 3.526258 -3.252400 -7.125000 0.000000 0.000000 -43.966000 14.224700 52.139300 10.236224 5.972402 0.015313 75.931322 32.054440 59.208160 -150.055363 36.400365 -110.262422 -0.750382 -0.529624 37.438886 46.510598 -32.678071 -28.875500 7.125000 0.000000 0.000000 69.905400 -48.707800 -11.885300 
-1.015282 16.691004 8.396245 -7.516807 39.934938 18.495652 7.071736 2.876966 4.344942 7.219561 -25.517985 -60.158409 4.275882 17.931755 44.714913 2.170454 -6.197695 -0.029363 1.468400 -7.657700 -21.679100 -7.185966 -1.226168 1.762395 30.470855 7.582442 -44.779118 -6.107684 -18.564453 54.579527 4.603900 -23.405623 -29.125728 -0.625700 -5.061700 14.084600 6.938232 0.580029 12.823835 -7.465314 4.524692 32.232538 -3.563940 1.198064 -33.181286 -6.109785 -0.032962 -21.310063 11.792501 0.527746 -2.648049 1.938800 -0.002900 1.653100 -1.135974 -7.037190 -2.183203 -90.533326 -22.912541 57.971768 151.695503 -36.618462 -111.149428 1.891275 0.048565 17.489564 -51.767085 3.511406 -3.215700 -7.125000 0.000000 0.000000 -43.985300 14.384300 51.906400 10.341741 6.049043 0.151663 75.659094 32.302936 59.068944 -150.009844 36.443126 -110.231247 -0.757416 -0.527984 37.169970 46.391180 -33.016661 -29.013000 7.125000 0.000000 0.000000 70.278600 -48.924000 -12.647500 
-0.946784 16.949132 8.476510 -7.749740 39.684822 17.146006 6.808092 2.778359 4.212715 6.184460 -25.712760 -55.906014 3.431789 16.870532 41.506088 2.122487 -5.673717 0.909031 1.480100 -7.686800 -21.766600 -6.744732 -1.256824 1.732844 30.869876 5.556156 -41.548645 -5.013688 -17.342119 50.867240 4.882578 -22.996691 -27.411600 -0.580000 -4.876800 13.557500 7.434378 0.829381 12.276883 -8.027175 4.935741 31.076045 -3.622269 1.296543 -32.773533 -5.937238 -0.197359 -21.694435 12.203077 0.236033 -1.337903 1.980200 -0.056100 2.002700 -1.245328 -7.008669 -2.079161 -90.385343 -22.907156 58.266705 151.752335 -36.587316 -111.171583 1.888484 0.054524 17.305966 -51.927884 3.527196 -3.250800 -7.125000 0.000000 0.000000 -43.957000 14.161700 52.225500 10.572442 6.040649 0.241380 75.502304 32.139127 58.922096 -150.096000 36.417810 -110.260910 -0.763262 -0.531219 37.081957 46.207223 -33.395769 -29.115000 7.125000 0.000000 0.000000 70.670200 -49.172900 -13.512400 
-0.871352 17.201902 8.560346 -7.951148 39.355583 15.753330 6.503379 2.704276 4.058312 5.138824 -26.004383 -51.410577 2.621536 15.698871 38.191059 2.027966 -4.886740 1.853456 1.485500 -7.700200 -21.807200 -6.290472 -1.316113 1.734621 31.045741 3.554841 -38.235459 -3.973950 -16.047318 47.081704 5.212802 -22.708746 -25.526743 -0.485700 -4.468600 12.399000 8.057751 1.039310 11.860983 -8.712190 5.341605 29.649562 -3.937818 1.382913 -32.245793 -7.898695 -0.151942 -20.937802 15.827779 0.389746 -1.568371 2.972000 -0.010200 1.941200 -1.175251 -7.205906 -1.949176 -90.066182 -22.876782 58.446420 151.819298 -36.525167 -111.205948 1.885864 0.050538 17.285798 -51.966844 3.619328 -3.385500 -7.125000 0.000000 0.000000 -43.978800 14.229200 52.178100 11.042402 5.830600 0.214202 75.462067 31.779000 59.080622 -150.263768 36.359796 -110.321396 -0.765878 -0.544438 37.151304 46.269111 -33.767868 -29.402700 7.125000 0.000000 0.000000 71.149800 -49.369700 -14.290000 
-0.791613 17.446687 8.646389 -8.117659 39.045162 14.188579 6.212347 2.650809 3.926891 3.994530 -26.513999 -46.587242 1.867471 14.394300 34.801311 1.893336 -3.944888 2.829764 1.401000 -7.487400 -21.167700 -5.770282 -1.457229 1.867614 30.960233 1.600689 -34.866399 -3.031660 -14.734357 43.384318 5.519532 -22.446008 -23.670984 -0.375800 -3.937100 10.899800 8.268725 1.251234 11.264135 -8.636756 5.479735 28.812087 -4.107429 1.426507 -31.798635 -8.629833 -0.233918 -21.143697 17.309500 0.250583 -0.292594 3.366300 0.028100 2.287500 -1.263745 -7.210219 -1.856384 -89.783019 -23.035812 58.493478 151.820142 -36.513749 -111.205095 1.886818 0.044639 17.402478 -51.932484 3.762422 -3.572400 -7.125000 0.000000 0.000000 -44.029700 14.463300 51.919200 11.249747 5.833250 0.306462 75.264768 31.829714 59.218064 -150.363418 36.290868 -110.354369 -0.768553 -0.558669 37.168744 46.437564 -34.339136 -29.911000 7.125000 0.000000 0.000000 71.934200 -49.655000 -15.486900 
